<svg width="25" height="25" viewBox="0 0 25 25" fill="none" xmlns="http://www.w3.org/2000/svg">
<path d="M20.4199 8.65234C20.1563 8.56445 19.8926 8.48144 19.6289 8.40332C19.6729 8.22266 19.7119 8.04199 19.751 7.86133C20.3516 4.95117 19.9561 2.6123 18.623 1.84082C17.3389 1.10352 15.2441 1.87012 13.125 3.71582C12.915 3.89648 12.71 4.08691 12.5146 4.27734C12.3828 4.15039 12.2461 4.02344 12.1094 3.90137C9.8877 1.92871 7.66113 1.09863 6.32813 1.875C5.04883 2.61719 4.66797 4.81934 5.20508 7.57324C5.25879 7.84668 5.31738 8.11523 5.38574 8.38867C5.07324 8.47656 4.76562 8.57422 4.47754 8.67676C1.87012 9.58008 0 11.0059 0 12.4805C0 14.0039 1.99219 15.5322 4.70215 16.46C4.92188 16.5332 5.1416 16.6064 5.36621 16.6699C5.29297 16.9629 5.22949 17.251 5.1709 17.5488C4.6582 20.2588 5.05859 22.4072 6.33789 23.1445C7.65625 23.9062 9.87305 23.125 12.0312 21.2353C12.2021 21.084 12.373 20.9277 12.5439 20.7617C12.7588 20.9717 12.9834 21.1719 13.208 21.3672C15.2979 23.1641 17.3633 23.8916 18.6377 23.1543C19.9561 22.3926 20.3857 20.083 19.8291 17.2705C19.7852 17.0557 19.7363 16.8359 19.6826 16.6113C19.8389 16.5674 19.9902 16.5186 20.1416 16.4697C22.959 15.5371 25 14.0283 25 12.4805C25 11.001 23.0762 9.56543 20.4199 8.65234V8.65234ZM13.8135 4.50684C15.6299 2.9248 17.3242 2.30469 18.0957 2.74902C18.9209 3.22266 19.2383 5.13672 18.7207 7.65137C18.6865 7.81738 18.6523 7.97851 18.6084 8.13965C17.5244 7.89551 16.4258 7.71973 15.3223 7.62207C14.6875 6.71387 13.9941 5.84473 13.2422 5.0293C13.4326 4.84863 13.6182 4.67773 13.8135 4.50684V4.50684ZM8.16406 15.0146C8.41309 15.4395 8.66699 15.8643 8.93555 16.2793C8.17383 16.1963 7.41699 16.0742 6.66992 15.9131C6.88477 15.21 7.15332 14.4824 7.46582 13.7402C7.69043 14.1699 7.91992 14.5947 8.16406 15.0146V15.0146ZM6.68457 9.14062C7.38769 8.98437 8.13477 8.85742 8.91113 8.75976C8.65234 9.16504 8.39844 9.58008 8.15918 10C7.91992 10.415 7.68555 10.8398 7.46582 11.2695C7.1582 10.542 6.89941 9.8291 6.68457 9.14062ZM8.02246 12.5049C8.34473 11.8311 8.69629 11.1719 9.06738 10.5225C9.43848 9.87305 9.83887 9.24316 10.2588 8.62305C10.9912 8.56934 11.7383 8.54004 12.5 8.54004C13.2617 8.54004 14.0137 8.56934 14.7412 8.62305C15.1562 9.23828 15.5518 9.86816 15.9277 10.5127C16.3037 11.1572 16.6553 11.8164 16.9873 12.4853C16.6602 13.1592 16.3086 13.8232 15.9326 14.4775C15.5615 15.127 15.166 15.7568 14.751 16.3818C14.0234 16.4355 13.2666 16.46 12.5 16.46C11.7334 16.46 10.9912 16.4355 10.2734 16.3916C9.84863 15.7715 9.44824 15.1367 9.07227 14.4873C8.69629 13.8379 8.34961 13.1787 8.02246 12.5049ZM16.8408 15.0049C17.0898 14.5752 17.3242 14.1406 17.5537 13.7012C17.8662 14.4092 18.1396 15.127 18.3789 15.8643C17.6221 16.0352 16.8555 16.167 16.084 16.2549C16.3477 15.8447 16.5967 15.4248 16.8408 15.0049ZM17.5439 11.2695C17.3145 10.8398 17.0801 10.4102 16.8359 9.99023C16.5967 9.57519 16.3477 9.16504 16.0889 8.75976C16.875 8.85742 17.627 8.98926 18.3301 9.15039C18.1055 9.87305 17.8418 10.5762 17.5439 11.2695V11.2695ZM12.5098 5.77637C13.0225 6.33301 13.5059 6.91894 13.9551 7.52441C12.9883 7.48047 12.0166 7.48047 11.0498 7.52441C11.5283 6.89453 12.0215 6.30859 12.5098 5.77637ZM6.8457 2.7832C7.66602 2.30469 9.48731 2.98828 11.4063 4.6875C11.5283 4.79492 11.6504 4.91211 11.7773 5.0293C11.0205 5.84473 10.3223 6.71387 9.68262 7.62207C8.5791 7.71973 7.48535 7.89062 6.40137 8.12988C6.33789 7.88086 6.28418 7.62695 6.23047 7.37305C5.77148 5.00977 6.07422 3.22754 6.8457 2.7832V2.7832ZM5.64941 15.6543C5.44434 15.5957 5.24414 15.5322 5.04395 15.4639C4.00391 15.1367 2.82227 14.6191 1.96777 13.9404C1.47461 13.5986 1.14258 13.0713 1.0498 12.4805C1.0498 11.5869 2.59277 10.4443 4.81934 9.66797C5.09766 9.57031 5.38086 9.48242 5.66406 9.39941C5.99609 10.459 6.39648 11.499 6.86035 12.5049C6.3916 13.5254 5.98633 14.5801 5.64941 15.6543V15.6543ZM11.3428 20.4395C10.5371 21.1768 9.60449 21.7627 8.58887 22.1631C8.04687 22.4219 7.42188 22.4463 6.86523 22.2266C6.08887 21.7773 5.7666 20.0537 6.20605 17.7344C6.25977 17.4609 6.31836 17.1875 6.38672 16.9189C7.48047 17.1533 8.58398 17.3145 9.70215 17.3975C10.3467 18.3105 11.0547 19.1846 11.8115 20.0049C11.6553 20.1562 11.499 20.3027 11.3428 20.4395ZM12.5391 19.2529C12.041 18.7158 11.543 18.1201 11.0596 17.4805C11.5283 17.5 12.0117 17.5098 12.5 17.5098C13.0029 17.5098 13.4961 17.5 13.9844 17.4756C13.5352 18.0957 13.0518 18.6865 12.5391 19.2529V19.2529ZM18.9209 20.7178C18.877 21.3135 18.584 21.8701 18.1152 22.2461C17.3389 22.6953 15.6836 22.1094 13.8965 20.5762C13.6914 20.4004 13.4863 20.21 13.2764 20.0146C14.0234 19.1895 14.7119 18.3154 15.3369 17.3975C16.4551 17.3047 17.5684 17.1338 18.667 16.8848C18.7158 17.085 18.7598 17.2852 18.7988 17.4805C19.0381 18.5352 19.0771 19.6338 18.9209 20.7178V20.7178ZM19.8096 15.4687C19.6729 15.5127 19.5361 15.5566 19.3945 15.5957C19.0527 14.5312 18.6328 13.4912 18.1494 12.4805C18.6182 11.4844 19.0137 10.459 19.3457 9.40918C19.5996 9.48242 19.8438 9.56055 20.0781 9.63867C22.3535 10.4199 23.9502 11.582 23.9502 12.4707C23.9502 13.4277 22.2461 14.6631 19.8096 15.4687ZM12.5 14.7363C13.7354 14.7363 14.7363 13.7354 14.7363 12.5C14.7363 11.2646 13.7354 10.2637 12.5 10.2637C11.2646 10.2637 10.2637 11.2646 10.2637 12.5C10.2637 13.7354 11.2646 14.7363 12.5 14.7363Z" fill="black"/>
</svg>
